<?xml version="1.0" encoding="utf-8"?>
<!-- Generator: Adobe Illustrator 16.0.0, SVG Export Plug-In . SVG Version: 6.00 Build 0)  -->
<!DOCTYPE svg PUBLIC "-//W3C//DTD SVG 1.1//EN" "http://www.w3.org/Graphics/SVG/1.1/DTD/svg11.dtd">
<svg version="1.1" id="Layer_1" xmlns="http://www.w3.org/2000/svg" xmlns:xlink="http://www.w3.org/1999/xlink" x="0px" y="0px"
	 width="155.906px" height="155.91px" viewBox="0 0 155.906 155.91" enable-background="new 0 0 155.906 155.91"
	 xml:space="preserve">
<g>
	<circle fill="#C19BC0" cx="78.153" cy="77.955" r="75.921"/>
	<polygon fill="#C69AC4" points="62.08,81.794 68.337,99.994 77.157,107.392 94.222,99.713 89.669,79.231 	"/>
	<path fill="#D3AAD0" d="M53.857,46.601c0,0,1.706,31.67,12.327,38.498c10.62,6.827,14.312,7.232,22.756,1.705
		c8.443-5.528,13.347-34.139,13.347-34.139s1.824-24.837-6.71-27.682C87.043,22.136,53.652,43.898,53.857,46.601z"/>
	<g>
		<g>
			<defs>
				<circle id="SVGID_1_" cx="77.755" cy="77.955" r="75.921"/>
			</defs>
			<clipPath id="SVGID_2_">
				<use xlink:href="#SVGID_1_"  overflow="visible"/>
			</clipPath>
			<path clip-path="url(#SVGID_2_)" fill="#E2D0E3" d="M15.073,160.616l0.382-45.079c0,0-4.348-9.998,16.307-11.521
				c20.656-1.522,98.708,0,98.708,0s6.96-2.394,7.831,11.089c0.867,13.479,0.867,49.571,0.867,49.571L15.073,160.616z"/>
		</g>
	</g>
	<path fill="#FFFFFF" d="M75.682,103.162c0,0-17.683-8.408-18.843-18.409C55.679,74.753,61.186,132.445,75.682,103.162z"/>
	<path fill="#FFFFFF" d="M77.755,103.287c0,0,11.741,21.599,25.077-1.736c13.333-23.339-3.187-7.395-2.466-8.267
		C101.091,92.414,93.826,103.059,77.755,103.287z"/>
	<path fill="#B26AAB" d="M74.05,6.1c0,0-31.292,7.016-35.085,39.444c-2.181,18.661-1.351,27.274-0.251,31.226
		c0.811,2.914,1.768,3.289,1.768,3.289s1.897,1.52-5.5,6.068c-7.396,4.551-10.24,23.515-3.982,25.791
		c6.259,2.279,9.293-2.086,14.034,1.707c4.74,3.791,8.707,14.124,16.689,13.656c6.447-0.378,13.272,11.566,12.327,0.757
		c-2.086-23.752-12.327-22.378-13.276-23.515c-0.948-1.134,2.845-8.724,3.224-15.172c0.379-6.447-12.895-32.806-9.481-38.685
		c3.415-5.879,19.913-5.879,24.463-7.966c4.553-2.084,15.244-9.639,15.244-9.639s13.497,11.549-0.535,50.995
		c-14.033,39.441-5.037,38.293-5.037,38.293s10.05,17.445,14.98,1.518c4.933-15.931,6.26-6.83,9.862-7.777s9.673-9.48,6.261-16.878
		c-3.416-7.395-8.347-17.634-5.503-27.116c2.845-9.484-4.741-23.707-4.17-27.308C110.647,41.183,109.703,10.84,74.05,6.1z"/>
	<path fill="#FFFFFF" d="M78.151,50.855l1.218,0.117c1.937,0.516,2.519-0.581,2.519-0.581s1.868-2.966,8.322-3.161
		c6.447-0.193,12.628,1.762,12.628,1.762v4.301c0,0,0.032,1.033-0.567,1.289c-0.601,0.258-0.86,1.807-0.86,1.807
		s-1.549,9.461-10.405,9.977c-8.861,0.517-10.936-9.179-10.452-10.114c0.486-0.936,1.219-2.669-2.401-2.766
		c-3.619,0.097-2.884,1.831-2.398,2.766c0.481,0.936-1.594,10.631-10.452,10.114c-8.859-0.516-10.408-9.977-10.408-9.977
		s-0.257-1.549-0.861-1.807c-0.602-0.258-0.566-1.289-0.566-1.289v-4.301c0,0,6.179-1.956,12.629-1.762
		c6.452,0.195,8.322,3.161,8.322,3.161s0.58,1.096,2.518,0.581L78.151,50.855z"/>
	<path fill="#96D1C0" d="M57.696,56.963c-0.341-4.123,0.849-6.943,7.663-7.254c5.265-0.238,7.344,3.199,7.154,7.13
		c-0.229,4.8-3.203,7.128-7.154,7.128C61.405,63.968,58.021,60.887,57.696,56.963z"/>
	<path fill="#96D1C0" d="M91.12,63.968c-3.953,0-6.928-2.328-7.156-7.128c-0.188-3.932,1.893-7.368,7.156-7.129
		c6.813,0.31,8.004,3.13,7.663,7.252C98.458,60.887,95.073,63.968,91.12,63.968z"/>
	<path fill="#B26AAB" d="M70.336,76.818c0,0,5.233-3.167,6.289-2.962c0.528-0.091,1.928,0.807,2.25,0.807
		c0.319,0,1.604-0.943,2.021-0.943c0.411,0,4.601,2.908,4.715,3.354c-0.429,1.42-5.2,3.393-7.312,3.349
		C76.188,80.376,72.564,78.7,70.336,76.818z"/>
	<path fill="#B26AAB" d="M80.259,68.999c0,0,0.489-1.196,1.033-0.979C81.835,68.239,81.889,68.944,80.259,68.999z"/>
	<path fill="#B26AAB" d="M76.073,68.999c0,0-1.847-0.762-1.305,0C75.313,69.759,76.073,68.999,76.073,68.999z"/>
</g>
</svg>
